<svg xmlns="http://www.w3.org/2000/svg" viewBox="0 0 280 121.1">
 <defs>
  <style>
   .Square	{ fill: url(#lgrad); }
   .Pt		{ fill: white; paint-order: stroke; stroke: rgb(255, 255, 255, 0.4); stroke-width: 6; }
   .able	{ fill: #003660; paint-order: stroke; stroke: white; stroke-width: 6; /*vector-effect: non-scaling-stroke;*/ }
  </style>
  <linearGradient id="lgrad" y2="100%">
   <stop offset="0" stop-color="rgb(45,190,252)" />
   <stop offset="1" stop-color="rgb(2,118,253)" />
  </linearGradient>
 </defs>
 <rect class="Square" width="121.1" height="121.1"/>
 <g class="Pt">
  <path d="M25,93.38V27.71H46.3q12.09,0,15.77,1a17.2,17.2,0,0,1,9.45,6.43q3.81,4.95,3.81,12.79a21.29,21.29,0,0,1-2.2,10.16,18,18,0,0,1-5.57,6.48,19.26,19.26,0,0,1-6.88,3.11,75.46,75.46,0,0,1-13.75.94H38.28V93.38ZM38.28,38.82V57.46h7.26c5.22,0,8.72-.35,10.48-1a8.69,8.69,0,0,0,4.14-3.23,8.8,8.8,0,0,0,1.5-5.1,8.52,8.52,0,0,0-2.1-5.92,9.18,9.18,0,0,0-5.33-2.91,63.38,63.38,0,0,0-9.54-.45Z"/>
  <path d="M104.27,45.81v10h-8.6V75a48.82,48.82,0,0,0,.24,6.78A2.75,2.75,0,0,0,97,83.39a3.58,3.58,0,0,0,2.13.63,16.14,16.14,0,0,0,5.06-1.21l1.08,9.77a25.11,25.11,0,0,1-10,1.88,15.76,15.76,0,0,1-6.13-1.14,9,9,0,0,1-4-3,11.73,11.73,0,0,1-1.77-4.91,61,61,0,0,1-.4-8.87V55.84H77.26v-10H83V36.36L95.67,29v16.8Z"/>
 </g>
 <g class="able">
  <path d="M123,60.32,111.6,58.26q1.92-6.88,6.63-10.21t14-3.31q8.43,0,12.55,2a12.58,12.58,0,0,1,5.8,5.06q1.68,3.08,1.68,11.27l-.14,14.69A51.23,51.23,0,0,0,152.7,87,27,27,0,0,0,155,93.38H142.51c-.33-.83-.73-2.07-1.21-3.71-.21-.75-.36-1.24-.45-1.48a22.58,22.58,0,0,1-6.9,4.7,19.68,19.68,0,0,1-7.84,1.57c-4.9,0-8.75-1.33-11.58-4a13.26,13.26,0,0,1-4.23-10.08,13.49,13.49,0,0,1,1.93-7.19,12.61,12.61,0,0,1,5.39-4.84,43,43,0,0,1,10-2.93q8.82-1.65,12.22-3.09V61.09c0-2.42-.59-4.15-1.79-5.18s-3.45-1.54-6.76-1.54a9,9,0,0,0-5.24,1.32A9.15,9.15,0,0,0,123,60.32Zm16.84,10.22a78.71,78.71,0,0,1-7.66,1.92q-5.23,1.13-6.85,2.2a5.24,5.24,0,0,0-2.46,4.43,6.13,6.13,0,0,0,2,4.57,6.85,6.85,0,0,0,5,1.93,10.93,10.93,0,0,0,6.49-2.24,7.91,7.91,0,0,0,3-4.17,24.76,24.76,0,0,0,.49-6.13Z"/>
  <path d="M160.43,93.38V27.71H173V51.37q5.82-6.63,13.79-6.63A18.52,18.52,0,0,1,201.19,51q5.7,6.3,5.69,18.07,0,12.2-5.8,18.77A18.11,18.11,0,0,1,187,94.46a17.44,17.44,0,0,1-8-2,19.31,19.31,0,0,1-6.83-6v7Zm12.5-24.81q0,7.38,2.33,10.93,3.27,5,8.69,5a8.9,8.9,0,0,0,7.1-3.56Q194,77.4,194,69.73q0-8.15-3-11.76a9.35,9.35,0,0,0-7.57-3.6,9.49,9.49,0,0,0-7.52,3.51Q172.93,61.4,172.93,68.57Z"/>
  <path d="M213.34,93.38V27.71h12.58V93.38Z"/>
  <path d="M262.7,78.24l12.55,2.11a20.58,20.58,0,0,1-7.64,10.5q-5.22,3.62-13.06,3.61-12.41,0-18.37-8.11-4.69-6.5-4.7-16.39,0-11.83,6.18-18.53a20.37,20.37,0,0,1,15.64-6.69q10.6,0,16.75,7t5.87,21.48H244.38q.13,5.59,3.05,8.71a9.54,9.54,0,0,0,7.25,3.11,7.75,7.75,0,0,0,5-1.61A10,10,0,0,0,262.7,78.24Zm.72-12.72q-.14-5.46-2.82-8.31a8.64,8.64,0,0,0-6.54-2.84,8.74,8.74,0,0,0-6.81,3q-2.69,3-2.64,8.15Z"/>
 </g>
</svg>
